<svg width="36" height="36" viewBox="0 0 36 36" fill="none" xmlns="http://www.w3.org/2000/svg">
<path d="M11.6722 2L-1.38283e-05 13.6722V2L11.6722 2Z" fill="black"/>
<path d="M11.6722 33.3204L-1.38283e-05 21.6482V33.3204L11.6722 33.3204Z" fill="black"/>
<path d="M0 17.5446L11.8667 6.66887L11.8667 28.6122L0 17.5446Z" fill="black"/>
<path fill-rule="evenodd" clip-rule="evenodd" d="M36 26.3105C33.2059 30.5353 28.4236 33.3204 22.9932 33.3204C14.3771 33.3204 7.3924 26.3091 7.3924 17.6602C7.3924 9.01131 14.3771 2 22.9932 2C28.3939 2 33.1537 4.75475 35.954 8.94081L29.7764 12.7461C28.2823 10.6601 25.8437 9.30169 23.0889 9.30169C18.543 9.30169 14.8578 13.0009 14.8578 17.5641C14.8578 22.1273 18.543 25.8266 23.0889 25.8266C25.7853 25.8266 28.1789 24.5251 29.6802 22.5138L36 26.3105Z" fill="black"/>
</svg>
