<svg width="52" height="57" viewBox="0 0 52 57" fill="none" xmlns="http://www.w3.org/2000/svg">
    <path d="M37.448 2.048C36.948 0.448 35.148 -0.352 33.648 0.148L2.048 10.948C0.448001 11.448 -0.352 13.248 0.148 14.748L13.948 54.948C14.448 56.548 16.248 57.348 17.748 56.848L49.348 46.048C50.948 45.548 51.748 43.748 51.248 42.248L37.448 2.048Z"
          fill="#DEE3E7"/>
    <path d="M21.5481 33.948L23.0481 27.448L27.5481 29.648L29.7481 21.148L38.6481 31.348L17.3481 38.648L18.2481 32.348L21.5481 33.948Z"
          fill="#C3CDD5"/>
    <path d="M16.8481 29.048C18.1184 29.048 19.1481 28.0183 19.1481 26.748C19.1481 25.4777 18.1184 24.448 16.8481 24.448C15.5778 24.448 14.5481 25.4777 14.5481 26.748C14.5481 28.0183 15.5778 29.048 16.8481 29.048Z"
          fill="#C3CDD5"/>
</svg>
