<svg width="18" height="18" viewBox="0 0 18 18" fill="none" xmlns="http://www.w3.org/2000/svg">
    <path d="M18 10.9453V17.6H14.142V11.391C14.142 9.83124 13.584 8.76676 12.1875 8.76676C11.1215 8.76676 10.4871 9.48414 10.208 10.1781C10.1063 10.4262 10.0801 10.7715 10.0801 11.1187V17.6H6.22078C6.22078 17.6 6.27276 7.08397 6.22078 5.99443H10.0797V7.63948C10.0719 7.65178 10.0617 7.66505 10.0543 7.67697H10.0797V7.63948C10.5924 6.84983 11.508 5.72178 13.5574 5.72178C16.0965 5.72174 18 7.38051 18 10.9453ZM2.18381 0.399963C0.863556 0.399963 0 1.26595 0 2.40474C0 3.51872 0.838572 4.41099 2.13259 4.41099H2.15837C3.50419 4.41099 4.34117 3.51889 4.34117 2.40474C4.31581 1.26595 3.50419 0.399963 2.18381 0.399963ZM0.229207 17.6H4.08702V5.99443H0.229207V17.6Z"
          fill="black"/>
</svg>
