<svg width="36" height="32" viewBox="0 0 36 32" fill="none" xmlns="http://www.w3.org/2000/svg">
    <path d="M11.6722 -3.26438e-06L-1.33514e-05 11.6722V3.26438e-06L11.6722 -3.26438e-06Z" fill="black"/>
    <path d="M11.6722 31.3204L-1.33514e-05 19.6482V31.3204L11.6722 31.3204Z" fill="black"/>
    <path d="M0 15.5446L11.8667 4.66886L11.8667 26.6122L0 15.5446Z" fill="black"/>
    <path fill-rule="evenodd" clip-rule="evenodd"
          d="M36 24.3105C33.2059 28.5353 28.4236 31.3204 22.9932 31.3204C14.3771 31.3204 7.3924 24.3091 7.3924 15.6602C7.3924 7.01131 14.3771 0 22.9932 0C28.3939 0 33.1537 2.75475 35.954 6.94081L29.7764 10.7461C28.2823 8.66012 25.8437 7.30169 23.0889 7.30169C18.543 7.30169 14.8578 11.0009 14.8578 15.5641C14.8578 20.1273 18.543 23.8266 23.0889 23.8266C25.7853 23.8266 28.1789 22.5251 29.6802 20.5138L36 24.3105Z"
          fill="black"/>
</svg>
