<svg width="18" height="21" viewBox="0 0 18 21" fill="none" xmlns="http://www.w3.org/2000/svg">
    <path d="M14.6929 18.8867V13.4734H16.4896V20.6834H0.272949V13.4734H2.06962V18.8867H14.6929Z" fill="black"/>
    <path d="M4.05337 12.96L12.8734 14.8033L13.2467 13.03L4.4267 11.1866L4.05337 12.96V12.96ZM5.22003 8.75996L13.3867 12.5633L14.1334 10.93L5.9667 7.10329L5.22003 8.75996ZM7.48337 4.74662L14.4134 10.51L15.5567 9.13329L8.6267 3.36996L7.48337 4.74662V4.74662ZM11.9634 0.476624L10.5167 1.54996L15.8834 8.78329L17.33 7.70996L11.9634 0.476624V0.476624ZM3.8667 17.0666H12.8734V15.27H3.8667V17.0666Z"
          fill="black"/>
</svg>
