<svg width="15" height="15" viewBox="0 0 15 15" fill="none" xmlns="http://www.w3.org/2000/svg">
    <g clip-path="url(#clip0)">
        <path d="M8.23587 8.89276V8.55929C8.23587 8.15327 7.90628 7.82397 7.50056 7.82397C7.09425 7.82397 6.76495 8.15327 6.76495 8.55929V8.89276C6.76495 9.29848 7.09425 9.62807 7.50056 9.62807C7.90628 9.62807 8.23587 9.29878 8.23587 8.89276Z"
              fill="black"/>
        <path d="M8.74013 9.2995C8.57743 9.833 8.08632 10.225 7.50058 10.225C6.91454 10.225 6.42344 9.83329 6.26043 9.2995H1.19446C0.874716 9.2995 0.572591 9.22516 0.301514 9.09619V12.4599C0.301514 13.1167 0.838891 13.6541 1.49569 13.6541H13.5049C14.1617 13.6541 14.6991 13.1167 14.6991 12.4599V9.09649C14.428 9.22546 14.1259 9.2998 13.8064 9.2998L8.74013 9.2995Z"
              fill="black"/>
        <path d="M13.7563 3.25926H10.8897C10.7168 2.17674 9.77847 1.34619 8.64819 1.34619H6.3512C5.22062 1.34619 4.28319 2.17674 4.10974 3.25926H1.24372C0.559463 3.25926 -0.000305176 3.79663 -0.000305176 4.45343V7.20987C-0.000305176 7.86906 0.534386 8.40405 1.19387 8.40405H6.20342C6.22044 8.06102 6.36792 7.75143 6.60108 7.52842C6.60825 7.52185 6.6166 7.51618 6.62407 7.50961C6.67572 7.46214 6.72945 7.41736 6.78827 7.37855C6.80917 7.36452 6.83305 7.35497 6.85484 7.34243C6.90321 7.31466 6.95097 7.28571 7.00322 7.26421C7.04412 7.24719 7.0883 7.23734 7.13129 7.2245C7.16831 7.21346 7.20354 7.19883 7.24205 7.19107C7.32564 7.17405 7.41192 7.16509 7.49999 7.16509C7.58836 7.16509 7.67434 7.17435 7.75764 7.19107C7.79585 7.19883 7.83138 7.21346 7.86869 7.2245C7.91168 7.23734 7.95527 7.24719 7.99677 7.26451C8.04872 7.286 8.09618 7.31466 8.14455 7.34243C8.16634 7.35527 8.19023 7.36482 8.21172 7.37885C8.27053 7.41736 8.32397 7.46214 8.37562 7.50961C8.38308 7.51648 8.39234 7.52185 8.39891 7.52902C8.63237 7.75233 8.77955 8.06102 8.79657 8.40464H13.8061C14.4656 8.40464 15.0003 7.86995 15.0003 7.21047V4.45402C15.0003 3.79663 14.4405 3.25926 13.7563 3.25926ZM5.26002 3.25926C5.41228 2.7992 5.84129 2.46394 6.3518 2.46394H8.64879C9.159 2.46394 9.588 2.7992 9.74026 3.25926H5.26002Z"
              fill="black"/>
    </g>
    <defs>
        <clipPath id="clip0">
            <rect width="15" height="15" fill="white"/>
        </clipPath>
    </defs>
</svg>
