<svg width="15" height="13" viewBox="0 0 15 13" fill="none" xmlns="http://www.w3.org/2000/svg">
    <path d="M8.46273 9.3989C8.19575 9.56263 7.85385 9.65283 7.49998 9.65283C7.14612 9.65283 6.80422 9.56267 6.53724 9.3989L2.17857 6.72569C2.17857 6.72569 1.78516 6.48455 1.78516 7.03083C1.78516 7.65118 1.78516 9.51222 1.78516 9.51222C1.78516 9.53703 1.78516 9.66159 1.78516 9.7002C1.78516 11.1064 4.34373 12.6223 7.49987 12.6223C10.656 12.6223 13.2146 11.1064 13.2146 9.7002C13.2146 9.66159 13.2146 9.53703 13.2146 9.51222C13.2146 9.51222 13.2146 7.53831 13.2146 6.88033C13.2146 6.44184 12.9349 6.6561 12.9349 6.6561L8.46273 9.3989Z"
          fill="#1C1B20"/>
    <path d="M14.7488 4.59927C15.0837 4.39388 15.0837 4.05777 14.7488 3.85234L8.10892 0.531973C7.77401 0.326582 7.22596 0.326582 6.89104 0.531973L0.251184 3.85234C-0.0837281 4.05773 -0.0837281 4.39384 0.251184 4.59927L6.89104 8.67157C7.22596 8.87696 7.77401 8.87696 8.10892 8.67157"
          fill="#1C1B20"/>
    <path d="M14.474 10.6354C14.474 9.51103 14.474 6.13788 14.474 6.13788C14.474 6.13788 14.4771 5.92486 14.3507 5.9952C14.2493 6.05164 14.0008 6.19018 13.9132 6.26635C13.8121 6.35422 13.8349 6.55145 13.8349 6.55145C13.8349 6.55145 13.8349 9.61442 13.8349 10.6354C13.8349 10.6934 13.7851 10.721 13.7613 10.735C13.5318 10.87 13.3774 11.119 13.3774 11.4046C13.3774 11.8337 13.7253 12.1816 14.1545 12.1816C14.5836 12.1816 14.9314 11.8337 14.9314 11.4046C14.9314 11.118 14.776 10.8681 14.545 10.7335C14.522 10.7201 14.474 10.6933 14.474 10.6354Z"
          fill="#1C1B20"/>
</svg>
