<svg width="15" height="15" viewBox="0 0 15 15" fill="none" xmlns="http://www.w3.org/2000/svg">
    <mask id="path-1-inside-1" fill="white">
        <path d="M14.25 3.00012H11V2.00012C10.9991 1.31006 10.4401 0.750977 9.75 0.750122H5.25C4.55994 0.750977 4.00085 1.31006 4 2.00012V3.00012H0.75C0.335815 3.00012 0 3.33594 0 3.75012V9.31506C0.00158691 9.6322 0.201416 9.91431 0.5 10.0209V13.5001C0.5 13.9143 0.835815 14.2501 1.25 14.2501H13.75C14.1642 14.2501 14.5 13.9143 14.5 13.5001V10.0211C14.7986 9.91443 14.9985 9.6322 15 9.31506V3.75012C15 3.33594 14.6642 3.00012 14.25 3.00012ZM4.5 2.00012C4.5 1.58594 4.83582 1.25012 5.25 1.25012H9.75C10.1642 1.25012 10.5 1.58594 10.5 2.00012V3.00012H10V2.00012C10 1.86206 9.88806 1.75012 9.75 1.75012H5.25C5.11194 1.75012 5 1.86206 5 2.00012V3.00012H4.5V2.00012ZM9.5 3.00012H5.5V2.25012H9.5V3.00012ZM14 13.5001C14 13.6382 13.8881 13.7501 13.75 13.7501H1.25C1.11194 13.7501 1 13.6382 1 13.5001V10.1068L6.5 10.8654V11.5001C6.5 11.9143 6.83582 12.2501 7.25 12.2501H7.75C8.16418 12.2501 8.5 11.9143 8.5 11.5001V10.8654L14 10.1068V13.5001ZM8 11.5001C8 11.6382 7.88806 11.7501 7.75 11.7501H7.25C7.11194 11.7501 7 11.6382 7 11.5001V10.0001C7 9.86206 7.11194 9.75012 7.25 9.75012H7.75C7.88806 9.75012 8 9.86206 8 10.0001V11.5001ZM14.5 9.31506C14.5001 9.4397 14.4084 9.54541 14.285 9.56287L14.2157 9.57239L8.5 10.3606V10.0001C8.5 9.58594 8.16418 9.25012 7.75 9.25012H7.25C6.83582 9.25012 6.5 9.58594 6.5 10.0001V10.3606L0.71521 9.56287C0.591797 9.54553 0.499878 9.43982 0.5 9.31506V3.75012C0.5 3.61206 0.611938 3.50012 0.75 3.50012H14.25C14.3881 3.50012 14.5 3.61206 14.5 3.75012V9.31506Z"/>
    </mask>
    <path d="M11 3.00012H10V4.00012H11V3.00012ZM11 2.00012H12L12 1.99888L11 2.00012ZM9.75 0.750122L9.75124 -0.249878H9.75V0.750122ZM5.25 0.750122V-0.249879L5.24876 -0.249877L5.25 0.750122ZM4 2.00012L3 1.99888V2.00012H4ZM4 3.00012V4.00012H5V3.00012H4ZM0 9.31506H-1.00001L-0.999987 9.32007L0 9.31506ZM0.5 10.0209H1.5V9.316L0.836141 9.07906L0.5 10.0209ZM14.5 10.0211L14.1635 9.07943L13.5 9.31651V10.0211H14.5ZM15 9.31506L16 9.31968V9.31506H15ZM10.5 3.00012V4.00012H11.5V3.00012H10.5ZM10 3.00012H9V4.00012H10V3.00012ZM5 3.00012V4.00012H6V3.00012H5ZM4.5 3.00012H3.5V4.00012H4.5V3.00012ZM9.5 3.00012V4.00012H10.5V3.00012H9.5ZM5.5 3.00012H4.5V4.00012H5.5V3.00012ZM5.5 2.25012V1.25012H4.5V2.25012H5.5ZM9.5 2.25012H10.5V1.25012H9.5V2.25012ZM1 10.1068L1.13662 9.11619L0 8.95943V10.1068H1ZM6.5 10.8654H7.5V9.99381L6.63662 9.87473L6.5 10.8654ZM8.5 10.8654L8.36338 9.87473L7.5 9.99381V10.8654H8.5ZM14 10.1068H15V8.95943L13.8634 9.11619L14 10.1068ZM14.5 9.31506H13.5L13.5 9.31604L14.5 9.31506ZM14.285 9.56287L14.4211 10.5536L14.4251 10.553L14.285 9.56287ZM14.2157 9.57239L14.0797 8.58169L14.0791 8.58176L14.2157 9.57239ZM8.5 10.3606H7.5V11.508L8.63661 11.3512L8.5 10.3606ZM6.5 10.3606L6.36339 11.3512L7.5 11.508V10.3606H6.5ZM0.71521 9.56287L0.57612 10.5531L0.578602 10.5535L0.71521 9.56287ZM0.5 9.31506L1.5 9.31604V9.31506H0.5ZM14.25 2.00012H11V4.00012H14.25V2.00012ZM12 3.00012V2.00012H10V3.00012H12ZM12 1.99888C11.9985 0.757503 10.9926 -0.24834 9.75124 -0.249877L9.74876 1.75012C9.88751 1.75029 9.99983 1.86261 10 2.00136L12 1.99888ZM9.75 -0.249878H5.25V1.75012H9.75V-0.249878ZM5.24876 -0.249877C4.00738 -0.24834 3.00154 0.757503 3 1.99888L5 2.00136C5.00017 1.86261 5.11249 1.75029 5.25124 1.75012L5.24876 -0.249877ZM3 2.00012V3.00012H5V2.00012H3ZM4 2.00012H0.75V4.00012H4V2.00012ZM0.75 2.00012C-0.216469 2.00012 -1 2.78365 -1 3.75012H1C1 3.88822 0.8881 4.00012 0.75 4.00012V2.00012ZM-1 3.75012V9.31506H1V3.75012H-1ZM-0.999987 9.32007C-0.996296 10.0578 -0.531332 10.7146 0.163859 10.9627L0.836141 9.07906C0.934164 9.11405 0.99947 9.2066 0.999987 9.31006L-0.999987 9.32007ZM-0.5 10.0209V13.5001H1.5V10.0209H-0.5ZM-0.5 13.5001C-0.5 14.4666 0.283531 15.2501 1.25 15.2501V13.2501C1.3881 13.2501 1.5 13.362 1.5 13.5001H-0.5ZM1.25 15.2501H13.75V13.2501H1.25V15.2501ZM13.75 15.2501C14.7165 15.2501 15.5 14.4666 15.5 13.5001H13.5C13.5 13.362 13.6119 13.2501 13.75 13.2501V15.2501ZM15.5 13.5001V10.0211H13.5V13.5001H15.5ZM14.8365 10.9628C15.5312 10.7146 15.9966 10.0579 16 9.31968L14 9.31044C14.0005 9.20652 14.066 9.11428 14.1635 9.07943L14.8365 10.9628ZM16 9.31506V3.75012H14V9.31506H16ZM16 3.75012C16 2.78365 15.2165 2.00012 14.25 2.00012V4.00012C14.1119 4.00012 14 3.88822 14 3.75012H16ZM5.5 2.00012C5.5 2.13822 5.3881 2.25012 5.25 2.25012V0.250122C4.28353 0.250122 3.5 1.03365 3.5 2.00012H5.5ZM5.25 2.25012H9.75V0.250122H5.25V2.25012ZM9.75 2.25012C9.6119 2.25012 9.5 2.13822 9.5 2.00012H11.5C11.5 1.03365 10.7165 0.250122 9.75 0.250122V2.25012ZM9.5 2.00012V3.00012H11.5V2.00012H9.5ZM10.5 2.00012H10V4.00012H10.5V2.00012ZM11 3.00012V2.00012H9V3.00012H11ZM11 2.00012C11 1.30978 10.4403 0.750122 9.75 0.750122V2.75012C9.33578 2.75012 9 2.41435 9 2.00012H11ZM9.75 0.750122H5.25V2.75012H9.75V0.750122ZM5.25 0.750122C4.55965 0.750122 4 1.30978 4 2.00012H6C6 2.41435 5.66422 2.75012 5.25 2.75012V0.750122ZM4 2.00012V3.00012H6V2.00012H4ZM5 2.00012H4.5V4.00012H5V2.00012ZM5.5 3.00012V2.00012H3.5V3.00012H5.5ZM9.5 2.00012H5.5V4.00012H9.5V2.00012ZM6.5 3.00012V2.25012H4.5V3.00012H6.5ZM5.5 3.25012H9.5V1.25012H5.5V3.25012ZM8.5 2.25012V3.00012H10.5V2.25012H8.5ZM13 13.5001C13 13.0859 13.3358 12.7501 13.75 12.7501V14.7501C14.4403 14.7501 15 14.1905 15 13.5001H13ZM13.75 12.7501H1.25V14.7501H13.75V12.7501ZM1.25 12.7501C1.66422 12.7501 2 13.0859 2 13.5001H0C0 14.1905 0.559654 14.7501 1.25 14.7501V12.7501ZM2 13.5001V10.1068H0V13.5001H2ZM0.863376 11.0974L6.36338 11.856L6.63662 9.87473L1.13662 9.11619L0.863376 11.0974ZM5.5 10.8654V11.5001H7.5V10.8654H5.5ZM5.5 11.5001C5.5 12.4666 6.28353 13.2501 7.25 13.2501V11.2501C7.3881 11.2501 7.5 11.362 7.5 11.5001H5.5ZM7.25 13.2501H7.75V11.2501H7.25V13.2501ZM7.75 13.2501C8.71647 13.2501 9.5 12.4666 9.5 11.5001H7.5C7.5 11.362 7.6119 11.2501 7.75 11.2501V13.2501ZM9.5 11.5001V10.8654H7.5V11.5001H9.5ZM8.63662 11.856L14.1366 11.0974L13.8634 9.11619L8.36338 9.87473L8.63662 11.856ZM13 10.1068V13.5001H15V10.1068H13ZM7 11.5001C7 11.0859 7.33578 10.7501 7.75 10.7501V12.7501C8.44035 12.7501 9 12.1905 9 11.5001H7ZM7.75 10.7501H7.25V12.7501H7.75V10.7501ZM7.25 10.7501C7.66422 10.7501 8 11.0859 8 11.5001H6C6 12.1905 6.55965 12.7501 7.25 12.7501V10.7501ZM8 11.5001V10.0001H6V11.5001H8ZM8 10.0001C8 10.4143 7.66422 10.7501 7.25 10.7501V8.75012C6.55965 8.75012 6 9.30978 6 10.0001H8ZM7.25 10.7501H7.75V8.75012H7.25V10.7501ZM7.75 10.7501C7.33578 10.7501 7 10.4143 7 10.0001H9C9 9.30978 8.44035 8.75012 7.75 8.75012V10.7501ZM7 10.0001V11.5001H9V10.0001H7ZM13.5 9.31604C13.4996 8.94238 13.7745 8.62512 14.145 8.57272L14.4251 10.553C15.0424 10.4657 15.5006 9.93702 15.5 9.31408L13.5 9.31604ZM14.149 8.57216L14.0797 8.58169L14.3517 10.5631L14.4211 10.5536L14.149 8.57216ZM14.0791 8.58176L8.36339 9.36997L8.63661 11.3512L14.3523 10.563L14.0791 8.58176ZM9.5 10.3606V10.0001H7.5V10.3606H9.5ZM9.5 10.0001C9.5 9.03365 8.71647 8.25012 7.75 8.25012V10.2501C7.6119 10.2501 7.5 10.1382 7.5 10.0001H9.5ZM7.75 8.25012H7.25V10.2501H7.75V8.25012ZM7.25 8.25012C6.28353 8.25012 5.5 9.03365 5.5 10.0001H7.5C7.5 10.1382 7.3881 10.2501 7.25 10.2501V8.25012ZM5.5 10.0001V10.3606H7.5V10.0001H5.5ZM6.63661 9.36997L0.851818 8.57224L0.578602 10.5535L6.36339 11.3512L6.63661 9.36997ZM0.8543 8.57259C1.22467 8.62461 1.50037 8.9416 1.5 9.31604L-0.5 9.31409C-0.50061 9.93804 -0.0410783 10.4665 0.57612 10.5531L0.8543 8.57259ZM1.5 9.31506V3.75012H-0.5V9.31506H1.5ZM1.5 3.75012C1.5 4.16435 1.16422 4.50012 0.75 4.50012V2.50012C0.0596537 2.50012 -0.5 3.05978 -0.5 3.75012H1.5ZM0.75 4.50012H14.25V2.50012H0.75V4.50012ZM14.25 4.50012C13.8358 4.50012 13.5 4.16435 13.5 3.75012H15.5C15.5 3.05978 14.9403 2.50012 14.25 2.50012V4.50012ZM13.5 3.75012V9.31506H15.5V3.75012H13.5Z"
          fill="#1C1B20" mask="url(#path-1-inside-1)"/>
</svg>
