<svg width="10" height="15" viewBox="0 0 10 15" fill="none" xmlns="http://www.w3.org/2000/svg">
    <g clip-path="url(#clip0)">
        <path d="M7.56522 2.8125C6.51613 2.8125 5.67391 3.64746 5.67391 4.6875C5.67391 5.37598 6.05808 5.97656 6.61957 6.29883V6.5625C6.61957 7.5 5.67391 8.4375 4.72826 8.4375C3.94514 8.4375 3.32456 8.59863 2.83696 8.8623V4.42383C3.39844 4.10156 3.78261 3.50098 3.78261 2.8125C3.78261 1.77246 2.94039 0.9375 1.8913 0.9375C0.842221 0.9375 0 1.77246 0 2.8125C0 3.50098 0.384171 4.10156 0.945652 4.42383V10.5615C0.384171 10.8838 0 11.4844 0 12.1729C0 13.2129 0.842221 14.0479 1.8913 14.0479C2.94039 14.0479 3.78261 13.2129 3.78261 12.1729C3.78261 11.6748 3.59052 11.2354 3.28023 10.8984C3.56097 10.5615 4.00425 10.2979 4.72826 10.2979C6.61957 10.2979 8.51087 8.42285 8.51087 6.54785V6.28418C9.07235 5.96191 9.45652 5.36133 9.45652 4.67285C9.45652 3.63281 8.6143 2.79785 7.56522 2.79785V2.8125ZM1.8913 1.875C2.40846 1.875 2.83696 2.2998 2.83696 2.8125C2.83696 3.3252 2.40846 3.75 1.8913 3.75C1.37415 3.75 0.945652 3.3252 0.945652 2.8125C0.945652 2.2998 1.37415 1.875 1.8913 1.875ZM1.8913 13.125C1.37415 13.125 0.945652 12.7002 0.945652 12.1875C0.945652 11.6748 1.37415 11.25 1.8913 11.25C2.40846 11.25 2.83696 11.6748 2.83696 12.1875C2.83696 12.7002 2.40846 13.125 1.8913 13.125ZM7.56522 5.625C7.04806 5.625 6.61957 5.2002 6.61957 4.6875C6.61957 4.1748 7.04806 3.75 7.56522 3.75C8.08237 3.75 8.51087 4.1748 8.51087 4.6875C8.51087 5.2002 8.08237 5.625 7.56522 5.625Z"
              fill="#1C1B20"/>
    </g>
    <defs>
        <clipPath id="clip0">
            <rect width="9.45652" height="15" fill="white"/>
        </clipPath>
    </defs>
</svg>
